# xmcd
#
# Track frame offsets:
#	150
#	21685
#	38865
#	58760
#	81140
#
# Disc length: 1304 seconds
#
# Revision: 0
# Processed by: cddbd v1.4PL0 Copyright (c) Steve Scherf et al.
# Submitted via: audiograbber 1.80.04
#
DISCID=3f051605
DTITLE=LeAnn Rimes - Light The Fire Within
DYEAR=2002
DGENRE=Country
TTITLE0=Light The Fire Within
TTITLE1=I Need You
TTITLE2=I Believe In You
TTITLE3=You Are
TTITLE4=I Need You
EXTD=
EXTT0=
EXTT1=
EXTT2=
EXTT3=
EXTT4=
PLAYORDER=
